<?xml version="1.0" standalone="no"?><!DOCTYPE svg PUBLIC "-//W3C//DTD SVG 1.1//EN" "http://www.w3.org/Graphics/SVG/1.1/DTD/svg11.dtd"><svg t="1616930905535" class="icon" viewBox="0 0 1024 1024" version="1.1" xmlns="http://www.w3.org/2000/svg" p-id="7329" width="200" height="200" xmlns:xlink="http://www.w3.org/1999/xlink"><defs><style type="text/css"></style></defs><path d="M596.405599 383.972714H416.970937a1470.476515 1470.476515 0 0 0-44.96781 213.342428H596.405599a106.671214 106.671214 0 0 1 0 213.342429h-276.501101a1525.340155 1525.340155 0 0 1 59.447737-426.684857A462.921055 462.921055 0 0 0 390.485042 283.777446a283.195339 283.195339 0 0 0-70.435017-187.365878A282.031123 282.031123 0 0 0 159.97044 4.875151L151.820934 3.492645 148.109998 2.910538C143.816954 2.32843 139.378384 1.746323 134.939814 1.309742H133.630072Q127.663469 0.654871 121.98792 0H107.435231v1024h488.970368a320.15917 320.15917 0 0 0 0-640.31834z" p-id="7330" fill="#1296db"></path></svg>